<?xml version="1.0" standalone="no"?>
<!DOCTYPE svg PUBLIC "-//W3C//DTD SVG 20010904//EN"
 "http://www.w3.org/TR/2001/REC-SVG-20010904/DTD/svg10.dtd">
<svg version="1.0" xmlns="http://www.w3.org/2000/svg"
 width="650.000000pt" height="650.000000pt" viewBox="0 0 650.000000 650.000000"
 preserveAspectRatio="xMidYMid meet">

<g transform="translate(0.000000,650.000000) scale(0.100000,-0.100000)"
fill="#000000" stroke="none">
<path d="M3488 5947 c-25 -7 -54 -19 -65 -28 -30 -26 -49 -28 -79 -8 -38 25
-59 24 -86 -3 l-21 -21 -8 21 c-12 32 -41 27 -62 -10 -14 -25 -20 -29 -27 -18
-7 12 -12 12 -28 -3 -10 -9 -31 -17 -46 -17 -15 0 -41 -8 -59 -17 -18 -9 -34
-18 -37 -18 -3 -1 -22 -9 -44 -18 -21 -9 -44 -17 -52 -17 -7 0 -15 -4 -19 -9
-3 -5 -20 -13 -37 -17 -18 -3 -39 -10 -48 -14 -8 -5 -46 -18 -85 -31 -38 -12
-83 -32 -100 -44 -16 -13 -44 -30 -62 -39 -34 -17 -193 -164 -193 -178 0 -5
-11 -21 -25 -36 -14 -15 -25 -32 -25 -39 0 -13 -249 -505 -259 -513 -17 -11
-43 -81 -68 -175 -28 -107 -33 -228 -20 -435 10 -143 14 -163 63 -322 4 -15
-1 -18 -31 -18 -19 0 -61 -9 -93 -21 -31 -12 -67 -23 -79 -26 -12 -3 -31 -14
-42 -24 -11 -10 -25 -19 -32 -19 -15 0 -87 -76 -105 -112 -8 -15 -18 -28 -23
-28 -15 0 -34 -130 -28 -195 8 -85 36 -160 88 -236 49 -74 118 -149 137 -149
6 0 12 -5 12 -11 0 -8 4 -8 14 0 11 9 15 9 18 0 3 -8 9 -9 17 -4 10 6 2 20
-33 54 -81 79 -163 207 -190 298 -13 41 -8 132 9 184 22 65 91 141 157 175 27
13 48 22 48 19 0 -3 14 2 30 10 18 9 61 17 103 18 l72 2 3 -40 c4 -49 32 -81
80 -91 21 -4 40 -7 43 -6 4 1 10 -36 14 -81 11 -122 54 -272 93 -322 12 -15
22 -31 22 -36 0 -17 135 -150 178 -175 55 -32 201 -86 214 -78 5 3 15 1 23 -6
10 -8 38 -9 105 -1 110 12 182 45 245 111 122 126 125 131 216 335 34 77 68
146 76 153 7 7 13 18 13 23 0 15 26 10 43 -9 20 -22 26 -63 32 -207 6 -144 10
-167 42 -253 24 -61 41 -86 108 -155 75 -78 94 -92 155 -117 14 -5 32 -14 40
-19 60 -35 194 -43 286 -16 28 8 94 40 145 70 115 67 199 152 256 258 52 96
87 138 113 136 50 -3 59 2 75 34 l16 34 62 -19 c34 -11 69 -22 77 -25 8 -4 20
-5 27 -4 7 1 41 -27 75 -61 47 -47 66 -74 75 -108 24 -89 17 -181 -19 -255
-30 -60 -95 -143 -118 -150 -11 -3 -19 -10 -17 -14 4 -14 -77 -76 -138 -105
-182 -87 -279 -101 -435 -64 -69 16 -103 1 -272 -119 -84 -60 -182 -122 -217
-137 -106 -45 -244 -67 -379 -61 -65 3 -125 8 -135 11 -10 3 -33 8 -50 10 -52
6 -145 29 -153 37 -4 4 -15 7 -24 7 -9 0 -35 9 -58 20 -23 11 -52 25 -65 30
-12 5 -40 21 -62 35 -22 13 -53 32 -70 41 -16 9 -52 35 -80 58 -27 22 -58 48
-69 56 -43 34 -99 95 -192 209 -140 174 -184 206 -263 191 -55 -10 -60 -16
-19 -25 65 -14 168 -85 168 -116 0 -6 7 -8 16 -5 8 3 12 2 9 -4 -5 -8 15 -37
58 -82 9 -10 17 -22 17 -27 0 -5 11 -18 25 -29 14 -11 25 -24 25 -29 0 -5 22
-32 49 -59 37 -37 50 -59 50 -80 0 -16 6 -49 14 -74 15 -45 23 -42 29 10 2 19
8 24 23 22 11 -2 22 -7 25 -11 6 -9 97 -71 104 -71 3 0 24 -13 48 -28 24 -16
59 -35 78 -42 19 -7 40 -17 47 -22 19 -15 195 -68 205 -62 5 3 14 1 21 -4 22
-19 245 -33 357 -24 153 13 259 45 349 105 49 34 66 25 54 -28 -10 -45 -10
-199 -1 -267 10 -75 17 -136 24 -215 l5 -61 -43 -44 c-24 -24 -77 -75 -118
-113 -73 -68 -108 -99 -256 -232 -91 -81 -201 -163 -237 -175 -56 -20 -99 0
-242 112 -102 80 -462 441 -469 470 -6 25 -13 149 -16 265 l-1 60 -15 -47 c-8
-26 -19 -50 -24 -53 -6 -3 -10 -33 -10 -65 0 -58 0 -59 -27 -57 -18 1 -28 -3
-30 -14 -4 -15 40 -85 102 -165 39 -49 295 -304 306 -304 5 0 9 -4 9 -9 0 -11
151 -144 221 -194 30 -21 74 -48 98 -59 32 -14 40 -23 32 -31 -17 -17 -13 -47
7 -49 9 0 22 -2 27 -3 6 -1 37 -5 70 -9 79 -9 115 -24 108 -43 -4 -10 -13 -13
-32 -8 -27 8 -70 11 -260 19 -78 4 -117 10 -122 18 -4 7 -14 22 -22 33 -14 18
-13 24 10 62 13 23 22 47 18 53 -14 23 -43 7 -94 -50 -48 -55 -121 -155 -121
-167 0 -2 -11 -19 -25 -37 -14 -18 -25 -36 -25 -40 0 -4 -9 -19 -20 -33 -11
-14 -20 -31 -20 -38 0 -7 -12 -32 -27 -55 l-28 -42 -11 43 c-5 24 -13 51 -16
59 -3 8 -20 74 -38 145 -18 72 -41 157 -51 190 -10 33 -27 89 -38 125 -10 36
-22 81 -25 100 -13 77 -54 219 -76 266 -11 22 -20 46 -20 52 0 7 -4 12 -10 12
-11 0 -40 -53 -40 -75 0 -8 -7 -15 -15 -15 -8 0 -15 -4 -15 -10 0 -5 -8 -10
-18 -10 -10 0 -27 -7 -38 -15 -18 -14 -18 -14 6 -15 23 -1 23 -2 5 -9 -11 -5
-29 -19 -40 -31 -21 -23 -69 -52 -95 -57 -8 -1 -41 -3 -72 -4 -44 -1 -58 -5
-58 -16 0 -8 -5 -11 -11 -7 -19 11 -59 -17 -59 -42 0 -26 -21 -35 -72 -34 -18
1 -86 -2 -150 -6 -98 -6 -118 -10 -119 -23 0 -12 -2 -11 -8 3 -5 14 -10 16
-15 8 -4 -7 -12 -10 -17 -7 -5 4 -9 2 -9 -4 0 -17 -52 16 -64 41 -6 12 -25 29
-41 37 -33 16 -98 24 -90 11 3 -5 1 -12 -5 -15 -6 -4 -9 -1 -8 6 2 6 -3 14
-11 17 -8 3 -11 0 -7 -7 5 -7 -1 -11 -15 -11 -19 0 -96 -26 -174 -60 -11 -4
-47 -18 -80 -30 -189 -71 -308 -147 -416 -267 -70 -77 -130 -240 -165 -448 -9
-55 -25 -127 -35 -160 -10 -33 -26 -89 -34 -125 -9 -36 -23 -89 -31 -117 -30
-111 -44 -169 -44 -185 0 -17 27 -18 419 -18 l418 0 16 78 c9 42 26 117 38
167 22 95 22 97 41 187 6 32 14 58 17 58 3 0 7 -36 8 -79 2 -59 9 -93 28 -136
14 -32 25 -71 25 -87 0 -66 45 -113 130 -138 59 -17 340 -12 404 7 17 5 18 1
13 -26 l-6 -31 494 0 c272 0 495 2 495 4 0 2 -7 21 -16 42 -9 22 -25 77 -35
124 -26 124 -68 292 -78 315 -9 20 -32 98 -37 123 -2 13 39 96 57 117 5 5 9
15 9 22 0 18 112 203 122 203 5 0 11 -8 15 -18 3 -9 13 -25 22 -36 9 -10 16
-28 17 -40 5 -113 18 -254 25 -279 5 -18 9 -46 9 -64 0 -17 4 -34 9 -37 5 -3
7 -25 5 -48 -4 -53 -31 -264 -39 -298 -3 -14 -8 -41 -11 -60 -3 -19 -8 -43
-11 -52 -4 -16 4 -18 61 -18 36 0 66 2 66 5 0 3 -11 18 -25 33 -25 27 -29 47
-16 91 6 23 7 23 41 -16 19 -22 48 -56 65 -76 29 -36 32 -37 92 -37 35 0 63 2
63 4 0 2 -19 24 -42 48 -51 52 -97 105 -154 173 -38 46 -41 53 -35 93 l6 44
52 -64 c29 -34 95 -110 147 -168 52 -58 95 -111 95 -117 1 -10 302 -13 1471
-13 l1470 0 0 23 c0 12 -16 52 -35 90 -19 37 -35 71 -35 75 -1 4 -7 21 -15 37
-26 61 -58 132 -85 190 -16 33 -37 80 -48 105 -107 240 -215 454 -246 489 -9
9 -16 23 -16 29 0 7 -3 12 -8 12 -4 0 -16 17 -27 37 -44 84 -152 168 -318 249
-52 26 -59 33 -69 71 -10 41 -14 45 -92 83 -96 48 -191 63 -218 36 -16 -15
-24 -13 -115 29 -54 25 -125 59 -158 75 -33 17 -91 42 -130 58 -61 24 -73 33
-90 68 -21 43 -37 61 -72 81 -37 21 -146 63 -151 58 -2 -2 -16 2 -31 9 -14 8
-49 17 -78 21 -39 5 -52 11 -51 23 0 42 -16 99 -34 115 -26 26 -118 67 -150
67 -15 0 -30 5 -33 11 -4 6 -6 47 -5 92 2 45 2 101 2 124 -1 38 2 44 36 64 20
13 39 26 42 29 3 3 29 23 59 45 47 34 61 39 105 38 28 -1 62 -6 76 -11 14 -5
70 -8 125 -7 104 3 152 17 280 81 95 47 108 57 182 128 76 73 128 143 151 206
21 54 24 196 6 265 -18 69 -82 152 -138 179 l-34 16 34 57 c33 55 57 114 68
164 5 21 18 31 63 49 32 13 63 27 68 31 6 4 21 9 34 11 13 1 29 11 35 20 9 14
4 24 -27 52 -49 44 -47 55 8 48 41 -4 45 -3 45 17 0 23 -17 62 -31 71 -4 3
-11 29 -15 57 -6 50 -5 53 20 63 14 5 26 16 26 25 0 8 3 15 8 15 4 0 14 10 22
23 18 29 24 316 10 485 -9 100 -44 272 -76 375 -4 13 0 17 21 17 14 0 36 5 48
12 59 31 58 62 -3 97 -22 12 -40 26 -40 32 0 5 -5 9 -12 9 -6 0 -63 52 -126
116 -63 63 -140 136 -171 162 -31 26 -62 52 -69 59 -7 7 -34 29 -60 50 -26 21
-48 41 -50 46 -2 4 -9 7 -17 7 -7 0 -19 7 -26 16 -22 27 -165 115 -314 194
-178 95 -419 162 -625 174 -58 4 -125 8 -150 10 -25 3 -66 -1 -92 -7z m-117
-74 c13 -16 12 -17 -3 -4 -10 7 -18 15 -18 17 0 8 8 3 21 -13z m-836 -413 c3
-5 1 -10 -4 -10 -6 0 -11 5 -11 10 0 6 2 10 4 10 3 0 8 -4 11 -10z m-50 -20
c3 -5 1 -10 -4 -10 -6 0 -11 5 -11 10 0 6 2 10 4 10 3 0 8 -4 11 -10z m-80
-31 c-4 -5 -12 -9 -18 -8 -9 0 -8 2 1 6 6 2 9 10 6 15 -4 7 -2 8 5 4 6 -4 9
-12 6 -17z m25 -49 c0 -5 -2 -10 -4 -10 -3 0 -8 5 -11 10 -3 6 -1 10 4 10 6 0
11 -4 11 -10z m20 -39 c0 -5 -7 -11 -14 -14 -10 -4 -13 -1 -9 9 6 15 23 19 23
5z m-150 -97 c0 -8 -19 -13 -24 -6 -3 5 1 9 9 9 8 0 15 -2 15 -3z m100 -14 c0
-5 -5 -10 -11 -10 -5 0 -7 5 -4 10 3 6 8 10 11 10 2 0 4 -4 4 -10z m20 -226
c0 -8 -5 -12 -10 -9 -6 4 -8 11 -5 16 9 14 15 11 15 -7z m10 -34 c0 -5 -4 -10
-10 -10 -5 0 -10 5 -10 10 0 6 5 10 10 10 6 0 10 -4 10 -10z m-35 -110 c3 -5
-1 -10 -9 -10 -9 0 -16 5 -16 10 0 6 4 10 9 10 6 0 13 -4 16 -10z m-328 -32
c-3 -8 -6 -5 -6 6 -1 11 2 17 5 13 3 -3 4 -12 1 -19z m16 -51 c-4 -7 -8 -18
-9 -25 -2 -8 -6 -17 -10 -20 -4 -4 -4 1 -1 11 6 15 3 17 -14 12 -15 -5 -19 -4
-15 4 4 6 14 11 22 11 8 0 14 7 14 16 0 8 5 12 10 9 6 -4 7 -12 3 -18z m127 3
c0 -5 -5 -10 -11 -10 -5 0 -7 5 -4 10 3 6 8 10 11 10 2 0 4 -4 4 -10z m20 -60
c0 -5 -4 -10 -10 -10 -5 0 -10 5 -10 10 0 6 5 10 10 10 6 0 10 -4 10 -10z
m-36 -101 c-3 -5 -10 -7 -15 -3 -5 3 -7 10 -3 15 3 5 10 7 15 3 5 -3 7 -10 3
-15z m1347 -16 c12 -14 12 -16 0 -8 -12 7 -13 -10 -7 -111 13 -217 51 -369
105 -418 29 -27 48 -14 55 38 4 25 11 48 15 51 5 2 21 -13 36 -34 44 -65 82
-90 131 -89 28 0 49 7 59 18 15 17 14 23 -14 82 -17 34 -31 68 -31 75 0 27 16
11 44 -42 35 -68 119 -180 140 -188 9 -4 16 -13 16 -22 0 -8 6 -15 13 -15 8 0
22 -9 33 -21 42 -47 133 -75 151 -46 8 12 9 17 12 37 0 5 17 1 36 -10 20 -11
41 -20 49 -20 13 0 36 -40 36 -63 0 -11 64 -37 90 -37 16 0 46 31 65 70 10 18
24 40 32 48 17 18 22 12 91 -102 47 -80 148 -190 183 -201 20 -7 25 -30 9 -40
-5 -3 -10 -14 -10 -23 0 -9 -15 -34 -33 -54 l-32 -37 -55 20 c-30 10 -54 19
-55 19 0 0 0 14 0 32 0 34 -7 40 -95 74 -63 24 -131 53 -161 69 -60 32 -203
84 -271 99 -150 32 -255 38 -618 34 -101 0 -225 16 -275 37 -36 15 -169 58
-245 79 -74 20 -151 33 -295 50 -123 15 -142 16 -475 19 l-195 2 3 42 c3 33 9
44 25 49 12 4 30 15 40 25 17 19 18 19 39 0 19 -18 23 -18 43 -5 16 10 25 12
30 5 3 -6 14 -11 24 -11 19 0 23 6 75 122 14 31 31 60 38 64 7 4 8 3 4 -4 -4
-7 -2 -12 4 -12 6 0 8 -4 5 -10 -8 -13 14 -52 25 -45 6 4 7 -1 3 -11 -5 -13
-3 -15 7 -9 8 5 11 4 7 -2 -10 -17 44 -73 70 -73 27 0 28 9 8 73 -8 26 -10 47
-5 47 6 0 10 -4 10 -8 0 -12 99 -61 129 -64 22 -3 26 2 32 39 4 23 19 60 34
83 14 22 23 46 19 53 -4 7 -4 9 1 5 4 -4 20 10 36 31 46 64 49 63 64 -19 14
-75 57 -171 81 -182 13 -6 27 -8 31 -4 4 3 6 48 5 99 -1 69 4 107 19 152 26
75 25 74 47 68 19 -4 33 -67 48 -211 6 -58 41 -132 59 -126 16 6 32 49 33 84
1 52 14 131 20 125 4 -3 7 -32 8 -64 2 -75 13 -96 47 -87 19 4 29 16 36 43 6
20 8 40 5 44 -2 4 0 11 6 14 6 4 8 16 4 28 -3 12 -3 19 1 15 12 -11 122 138
110 150 -3 3 -5 0 -5 -6 0 -7 -5 -12 -11 -12 -8 0 -8 5 1 15 7 8 18 15 25 15
7 0 29 21 48 48 64 83 59 79 78 55z m-821 -739 c47 -9 101 -18 120 -19 19 -1
55 -8 80 -15 25 -8 49 -13 53 -12 11 3 144 -36 182 -53 40 -18 74 -80 80 -144
4 -59 -23 -151 -74 -246 -49 -92 -52 -96 -121 -165 -69 -70 -131 -101 -232
-115 -57 -7 -185 24 -268 66 -81 41 -189 158 -231 249 -18 38 -23 226 -9 306
7 38 14 84 17 102 9 55 73 73 233 66 47 -2 123 -11 170 -20z m1336 -179 c240
-42 287 -61 343 -139 31 -44 34 -54 33 -110 -2 -85 -5 -106 -14 -106 -4 0 -8
-8 -8 -18 0 -20 -48 -118 -71 -147 -99 -120 -188 -192 -275 -221 -137 -44
-297 5 -416 128 -68 71 -94 111 -119 183 -15 47 -13 36 -23 106 -15 118 32
265 98 306 65 39 285 48 452 18z m-1869 -701 c-3 -3 -12 -4 -19 -1 -8 3 -5 6
6 6 11 1 17 -2 13 -5z m1890 -910 c48 -19 75 -63 79 -129 2 -22 6 -60 9 -85 4
-25 9 -116 11 -203 5 -166 3 -179 -54 -277 -45 -77 -90 -175 -125 -270 -19
-52 -46 -115 -60 -140 -14 -25 -50 -95 -81 -156 -74 -148 -77 -150 -115 -76
-17 33 -44 80 -61 105 -16 25 -30 49 -30 55 0 6 -3 12 -7 14 -5 2 -16 19 -26
38 -35 69 -98 124 -167 147 -19 7 -70 15 -112 19 -43 4 -78 11 -78 16 0 6 6 8
13 5 25 -9 151 64 221 128 12 11 35 29 50 40 16 11 45 36 66 55 32 31 75 69
239 218 103 93 198 193 215 227 18 35 10 58 -19 52 -19 -3 -25 3 -35 36 -6 22
-14 75 -17 119 -5 76 -5 78 18 78 13 0 42 -7 66 -16z m330 -290 c-3 -3 -12 -4
-19 -1 -8 3 -5 6 6 6 11 1 17 -2 13 -5z m-2992 -354 c3 -5 1 -10 -4 -10 -6 0
-11 5 -11 10 0 6 2 10 4 10 3 0 8 -4 11 -10z m785 -23 c31 -15 66 -88 68 -143
1 -22 6 -63 11 -90 15 -77 9 -237 -9 -255 -20 -20 -80 -33 -80 -17 0 7 -12 24
-27 40 -24 26 -25 29 -10 45 25 28 28 61 18 158 -13 114 -19 144 -34 165 -22
32 -73 69 -100 72 -33 5 -41 13 -33 33 5 14 18 16 89 10 45 -4 93 -12 107 -18z
m-740 -38 c0 -10 -6 -19 -14 -19 -22 0 -27 -29 -7 -39 10 -6 21 -8 23 -5 10 9
153 18 448 29 164 6 200 -29 214 -205 7 -94 2 -106 -55 -126 -67 -24 -65 -51
5 -76 27 -9 54 -22 59 -27 13 -13 20 -167 9 -206 -6 -21 -20 -35 -45 -48 -20
-9 -37 -24 -37 -32 0 -17 30 -35 58 -35 30 0 40 -20 44 -90 4 -61 3 -67 -25
-99 l-29 -35 30 -25 c16 -14 33 -38 36 -53 6 -26 -6 -103 -17 -115 -6 -6 -133
-30 -157 -30 -8 0 -102 -6 -207 -13 -198 -13 -282 -9 -338 15 -32 14 -50 47
-51 91 0 26 -9 53 -25 75 -22 31 -24 44 -25 159 -1 69 -4 132 -7 140 -41 114
-40 103 -22 268 7 57 5 66 -19 102 -35 53 -48 188 -22 238 9 18 20 32 25 32 5
0 14 14 20 31 12 34 108 132 122 123 5 -3 9 -14 9 -25z m190 -13 c0 -3 -4 -8
-10 -11 -5 -3 -10 -1 -10 4 0 6 5 11 10 11 6 0 10 -2 10 -4z m180 0 c0 -3 -4
-8 -10 -11 -5 -3 -10 -1 -10 4 0 6 5 11 10 11 6 0 10 -2 10 -4z m1505 -407
c84 1 85 -12 3 -54 -40 -21 -75 -41 -78 -44 -8 -10 -63 -42 -82 -48 -10 -3
-18 -9 -18 -14 0 -5 -6 -9 -13 -9 -7 0 -35 -14 -61 -31 -27 -16 -50 -29 -51
-27 -4 4 -8 59 -7 89 2 22 19 37 100 88 81 52 102 60 127 55 16 -4 52 -6 80
-5z m269 -104 c13 -23 20 -33 46 -64 11 -13 29 -48 40 -78 11 -29 27 -65 36
-78 15 -23 14 -27 -19 -82 -19 -32 -65 -116 -102 -188 -36 -71 -73 -137 -81
-146 -8 -8 -14 -20 -14 -25 0 -6 -11 -23 -24 -40 -13 -16 -33 -40 -45 -54
l-20 -25 -2 35 c-2 51 -5 79 -12 135 -4 28 -10 82 -13 120 -3 39 -8 72 -10 74
-2 2 1 12 7 23 5 10 12 35 15 55 7 59 84 326 97 339 7 8 68 23 81 20 5 -1 14
-11 20 -21z m-204 -106 c-19 -58 -33 -87 -51 -98 -13 -9 -28 -21 -34 -27 -5
-6 -37 -28 -70 -49 -57 -36 -61 -37 -124 -31 -36 4 -69 12 -72 18 -10 16 -1
35 19 42 9 3 62 37 117 76 147 104 185 130 191 130 3 0 12 7 21 15 28 29 29 5
3 -76z m-47 -196 c-5 -34 -34 -46 -49 -22 -5 9 46 63 52 56 1 -1 -1 -17 -3
-34z m-173 -83 c3 -1 12 -3 20 -4 9 0 43 -31 75 -67 52 -57 60 -71 62 -110 l3
-44 -91 95 c-49 52 -99 105 -111 117 l-20 22 28 -4 c16 -2 31 -4 34 -5z"/>
<path d="M2620 4053 c-19 -8 -29 -17 -22 -20 6 -3 12 -10 12 -17 0 -10 30 -12
131 -9 72 2 135 6 140 9 15 9 10 41 -7 48 -34 13 -219 5 -254 -11z"/>
<path d="M3814 3925 c-4 -8 -4 -21 -1 -29 5 -13 76 -31 110 -27 10 1 24 -2 31
-8 7 -6 34 -17 59 -25 39 -12 48 -12 57 0 25 29 6 47 -84 75 -100 32 -163 37
-172 14z"/>
<path d="M2758 3645 c-52 -38 -62 -61 -62 -140 0 -51 14 -81 63 -137 21 -24
29 -27 90 -25 48 1 73 7 93 22 54 41 83 120 66 181 -13 48 -79 110 -126 119
-20 3 -46 8 -57 11 -12 2 -38 -10 -67 -31z"/>
<path d="M3733 3464 c-30 -28 -45 -52 -53 -86 -11 -43 -10 -51 11 -89 13 -23
31 -46 39 -50 53 -27 80 -35 118 -31 35 3 48 11 76 46 35 42 49 106 33 151
-10 29 -99 86 -144 92 -34 4 -43 1 -80 -33z"/>
<path d="M1771 959 c-120 -9 -143 -17 -121 -44 11 -13 30 -15 114 -10 164 9
188 14 184 39 -4 26 -19 27 -177 15z"/>
<path d="M1829 626 c-2 -2 -29 -6 -60 -9 -63 -5 -79 -11 -79 -32 0 -22 35 -26
165 -18 114 8 120 9 123 31 2 12 0 23 -5 23 -24 4 -141 8 -144 5z"/>
<path d="M1812 348 c-7 -7 -12 -21 -12 -31 0 -18 7 -19 95 -15 96 4 123 14
112 42 -5 13 -24 16 -95 16 -55 0 -92 -4 -100 -12z"/>
<path d="M1977 3592 c-15 -16 -13 -21 24 -65 22 -26 38 -51 35 -56 -3 -5 -22
-9 -42 -9 -28 0 -44 -8 -68 -31 -28 -28 -29 -32 -14 -47 14 -14 18 -14 46 0
41 21 98 21 106 0 3 -9 6 -37 6 -64 0 -51 14 -66 52 -54 15 4 18 12 14 42 -3
20 -8 57 -12 82 -10 76 -35 133 -78 178 -22 23 -43 42 -47 42 -3 0 -13 -8 -22
-18z"/>
<path d="M4618 3126 c-59 -21 -112 -71 -148 -138 -19 -35 -35 -70 -37 -78 -1
-8 -5 -28 -8 -45 -4 -19 -1 -37 8 -49 14 -19 14 -19 35 2 13 13 22 35 22 51 0
16 6 33 13 39 12 11 62 14 122 9 27 -2 30 1 27 23 -4 34 -14 42 -67 47 l-46 6
27 28 c15 16 49 36 76 45 55 18 71 40 43 60 -22 17 -20 17 -67 0z"/>
<path d="M3103 3080 c-47 -19 -8 -68 43 -56 24 6 150 -20 170 -35 16 -13 125
-18 151 -8 41 15 22 50 -28 51 -19 0 -68 9 -109 20 -155 40 -187 44 -227 28z"/>
<path d="M2118 2983 c7 -3 16 -2 19 1 4 3 -2 6 -13 5 -11 0 -14 -3 -6 -6z"/>
<path d="M1607 2427 c-91 -29 -138 -97 -131 -190 6 -88 43 -138 123 -165 128
-44 271 47 271 173 0 40 -22 100 -48 128 -44 49 -148 76 -215 54z m141 -46
c76 -39 101 -156 48 -226 -55 -71 -168 -77 -228 -12 -118 130 25 317 180 238z"/>
</g>
</svg>
